<svg id="Layer_1" data-name="Layer 1" xmlns="http://www.w3.org/2000/svg" viewBox="0 0 592.93 723.94"><defs><style>.cls-1{fill:#fff;}</style></defs><path d="M269.15,399.56c-9.53,10.71-17.9,20.21-26.42,29.59-1,1.11-3,2.37-4.22,2.12-10.21-2.12-14.81,5.25-19.92,11.55-14.14,17.46-28.14,35-43.2,53.84C112.51,438.82,55.28,376.88,5.87,306.05c11.28-5,17.24-16.14,29.23-15.8,1.84-2.66,3.28-6.44,6-8.45q29.73-21.82,60-42.93c5.9-4.09,12.47-8.63,19.21-9.6,4.35-.62,11.09,3.78,14.14,7.87,12.74,17.12,23.94,35.39,36.74,52.46,14.34,19.11,29.27,37.85,44.94,55.89,14.62,16.82,30.51,32.54,45.93,48.66C264,396.13,266.48,397.55,269.15,399.56ZM107.41,277.12c.15,8.62,4.4,13.23,11.88,12.89,6.42-.3,12.18-7.26,12.12-14.66a12.45,12.45,0,0,0-12.55-12.07C111.88,263.53,107.27,269.1,107.41,277.12Zm-34,62.27-1.57,1.53,24.37,29.3,1.68-1.41Z"/><path d="M334,416.06l-11.85-15.62c.14-.3.28-1.24.83-1.7,34-28.69,60.43-64,86.66-99.44,14.08-19,27.94-38.23,42-57.27,10.71-14.5,17.22-15.62,32.89-5,21.23,14.39,42.16,29.23,63.33,43.72,5.44,3.73,8.12,7.72,3.16,14.53,4.91-6.75,9.35-6.43,14.81-1.68,5.06,4.4,10.85,8,17.8,12.95-48.8,70.33-106.13,132.17-169.16,190.29l-16.77-21.69,15.62-18.9-20.25,10.6c-2.1-1.64-4.56-3-6.24-5q-9.57-11.28-18.7-22.92c-4.06-5.15-8.52-8.73-15.73-7.86-1.91.23-4.43-1.68-6.14-3.2-4.35-3.86-8.39-8.06-12.55-12.12ZM471,290c5.9.11,11.5-6.32,11.91-13.68.36-6.54-5.22-12.76-11.72-13.05a11.87,11.87,0,0,0-12.29,12.13C458.86,283.34,464.3,289.9,471,290Z"/><path d="M333.69,415.79l13.83,18.62L330.75,452.9c5.44,4.65,10.6,9.27,16,13.63q35.26,28.53,70.65,56.91c20.49,16.4,20.09,42.62-1,58.17-7.48,5.51-14.59,4.24-19.43-3.28-13.91-21.63-30.65-40.33-52.88-54-17-10.45-33.21-22.11-49-32.71-20.23,13.49-42.27,25.95-61.54,41.77-15,12.35-27.19,28.42-39.53,43.73-6.91,8.57-13,10.55-21.74,3.33-20.06-16.61-20.32-39.93-.27-56.39,27.31-22.41,54.86-44.54,82.29-66.79,1.5-1.22,2.92-2.53,4.87-4.23L242,433.87c9.46-10.62,18.67-20.94,28.44-31.89,8,6.9,15.88,13.64,24.46,21L319,402.58l15,13.48ZM336.77,504c4-5,8.49-8.22,8.14-10.82-.44-3.32-4.83-6.11-7.51-9.12-2.89,2.84-7.44,5.34-8.12,8.64C328.75,495.25,333.1,498.79,336.77,504ZM198.28,546.63l-.11-3.84c-3.39-2-6.93-5.86-10.11-5.58-2.7.23-7,5.24-6.9,8.06s4.68,7.49,7.38,7.55C191.75,552.88,195,548.87,198.28,546.63ZM400.58,533c-3.49,5.9-7.29,9.49-7,12.7.26,2.77,5.17,5.11,8,7.64,2.67-3,7.05-5.82,7.47-9.13C409.42,541.63,404.88,538.39,400.58,533Zm-150-31.1,3.65.09c2.24-3,6.59-6.23,6.21-8.81-.48-3.35-4.73-6.16-7.35-9.2-2.83,2.59-7.61,5-7.94,7.83C244.76,495,248.56,498.54,250.54,501.92Zm36.22-65.14c-5.5-4-8.37-7.59-11.66-8-5.11-.68-9.18,3.33-8,8.38.74,3.1,5.09,7,8.16,7.35C278.08,444.77,281.32,440.67,286.76,436.78Zm33.08,7.05c4.62-5.82,4.78-10.51-.46-13.9-4.66-3-8.91-1.89-11.74,3.91ZM161.55,556.11c-1.51-13.56,6.1-22.46,14.71-30.9C165.17,532.63,157.71,541.8,161.55,556.11Z"/><path d="M227.29,183l6.24,6.87c-1.53,1-3.74,3.28-4.47,2.88-3.18-1.77-7.39-3.74-8.57-6.69-2.89-7.24,6.86-15.58,15-12.1a22.57,22.57,0,0,1,11.24,12c2.54,7.22-1,13.75-8.16,17.62-11.14,6-24.36,2.25-30.82-8.83a24.31,24.31,0,0,1,8.5-33.25,30.8,30.8,0,0,1,40.42,7c10.23,12.9,9.16,31.87-2.45,43.3a38.28,38.28,0,0,1-54.76-1c-15.26-15.91-14.47-42.84,1.7-58,17.8-16.69,46.49-16.46,63.81.51,18.55,18.18,19.53,49.33,2.15,68.41a54.08,54.08,0,0,1-63.65,12.19C182,223.45,168.74,197.86,173,174.75c5.7-31.27,31-51.89,62.33-50.87,30.2,1,55.79,24.62,59.47,54.93,3.79,31.23,19.13,51,45.08,58.06,27.26,7.43,56.08-6.38,66.47-31.85s.88-53.44-22.65-66.67c-20.19-11.35-45.48-7.29-60.36,9.67-14.68,16.76-15.9,40.38-3,57.72,11.6,15.55,33.46,21.24,50.95,13.26,16.58-7.56,25.68-26,21.86-44.26-3.48-16.63-22.05-29.41-38.21-26.3-18.7,3.6-29.48,18.67-26.47,37,2.08,12.68,15.12,22.56,27.71,21,13.06-1.64,22.24-12.28,21.59-25a17.52,17.52,0,0,0-16-16.83c-8.55-.63-16.31,4.48-17.29,12.79-.42,3.55,1.65,8.07,4,11,1.27,1.57,6.27,1.83,8.34.59,2.33-1.41,3.27-5.15,4.81-7.88l-2.14-1.45c-1,.74-1.93,1.83-3.06,2.14a26.91,26.91,0,0,1-5.11.47c0-1.85-.66-4.65.27-5.37,2.46-1.93,6.15-4.66,8.37-4a13.24,13.24,0,0,1,7.65,7.45c2.24,7-2.74,14.12-10,16.24-7.87,2.29-16.1-1.89-19.28-9.8-3.12-7.76-.26-17.89,6.71-23.73,7.4-6.2,18.71-7.33,27-2.46,8.82,5.19,13.15,13,12.66,23.26-.57,11.66-6.13,20.47-16.41,25.94-11.92,6.34-25.91,4.33-36.26-4.8-10.2-9-13.78-23.54-9.15-37.23,6.95-20.53,28.25-31.27,49-24.72,21.63,6.8,33.9,30,27.59,52.2-6.59,23.17-27.52,36.82-51.95,33.89-22.55-2.71-41.57-23-42.85-45.74-1.75-31.21,20.82-56.83,51.13-58,32.91-1.3,59.58,23.57,61.35,54.78A62.3,62.3,0,0,1,328.45,240c-29.14-13.24-57.54-4.2-72.9,13.44-14.58,16.73-18.84,36-11.19,56.78,7.83,21.19,24,33,46.49,35.59,25.11,2.92,49.83-17,54.31-43.4,3.79-22.4-12.39-46.12-35.4-51.84-20.81-5.18-43.55,7.19-50.34,27.38-6.67,19.84,2.61,41.13,22,49.09,12.79,5.25,25.07,3.32,35.68-5.73,10.12-8.63,14.06-19.85,10.67-32.75-3.28-12.52-11.7-20.43-24.6-22.92-12.34-2.39-26,7-28.87,19.47a23.69,23.69,0,0,0,17,28.24c7.76,2,17.32-3,20-10.51,2.79-7.8-.78-17.13-7.88-20.2-5.17-2.23-10-1.19-12,4.12-1.8,4.62-1.52,9.58,5,10.39.94-3.1,1.76-5.81,2.59-8.52,1.74,1.11,4.92,2.17,5,3.32.09,3.34,0,7.89-2,9.83-4.92,4.69-10.5,3-14.92-1.63-5.07-5.29-5.13-13.48-.48-19.46,4.5-5.79,13-7.64,19.93-4.34a22.92,22.92,0,0,1,11.71,27.9c-3.83,11.18-16.38,18.44-27.65,16A30.57,30.57,0,0,1,268,281.9c5.37-18.13,25.61-28,43.45-21.14,15.92,6.1,26.7,23.66,24.31,39.64-2.94,19.71-17.55,34.2-36.19,35.89-23.53,2.12-43.6-13.2-48.36-36.92-4.69-23.4,10.06-47.22,33.85-54.63,22.15-6.91,46.94,2.8,59.39,23.27a54.81,54.81,0,0,1-8.18,67.09c-21.19,21.39-53.4,23.54-78.08,5.21-24-17.81-32-51.73-16.61-78.16,5.89-10.14,15.17-18.86,24.39-26.41,26.87-22,30.57-61.64,7.26-87.36a54.75,54.75,0,0,0-60.62-13.7c-21,8.57-34,28.16-33.35,50.42.68,24,19.41,44.54,43,47.25,22.45,2.58,43.27-11.73,49.33-33.89,5.56-20.37-6.76-42.88-27-49.32-19.56-6.22-40.28,3.53-47.16,22.19-6,16.16,1.35,34.37,16.7,41.61,14.3,6.76,31.8,1.65,39.27-11.45,6.08-10.67,4.1-23.09-5-31.61a23.52,23.52,0,0,0-29-2c-8.39,5.74-10.5,16.44-4.83,24.55,5,7.23,14.89,9.24,21.69,4.36,5-3.59,6.07-8.52,2.48-13.22C235.31,179.19,230.85,178.66,227.29,183Zm79.35,42.84-12.93-18.51-9.94,20.53Z"/><path d="M441.81,651.88l-22.57,16.39c-6.87-8.65-14.66-8.82-18.37-1.26a8.78,8.78,0,0,0,0,7c.68,1.3,4,2.1,5.85,1.74a90,90,0,0,0,12.93-3.94c6.54-2.34,12.66-2.11,16.3,4.42s3.35,14.71-2.75,18.45a113.35,113.35,0,0,1-30.05,12.46c-5.93,1.57-10.13-3.77-11.42-10.72l10.59-5c5.08,3.06,9.12,7.41,12,6.75,3.75-.88,8.06-5.18,9.46-9,2.13-5.8-2.52-9.8-8.69-8.25-5.17,1.3-10.09,4.18-15.28,4.66-3.63.34-9.15-1.09-10.88-3.69-2.05-3.1-2.4-8.88-.93-12.45,4.71-11.47,30.28-19.39,39.58-14.34l11.1-9.34c1.66-1.39,4.78-2.81,4.76-4.17-.22-11.91,10.18-12.5,18.22-18.4-1.21,4.88-2,8-3.22,13,8.49-4,15.47-7.87,22.81-10.74,9.5-3.7,15.16-12,22.91-17.8,6.27-4.67,12.39-9.67,20.57-4.44,6.55,4.19,7.61,11.85,3.52,22.22-.41,1-.86,2.06-1.84,4.4h27c-8.52,6-14.06,15-26.33,13.86-6.69-.62-13.59,1-22.66,1.88l8.41,13.12-11.71,8.52c-7.12-12.56-12.7-25.55-22.77-33.76-6.2,3.44-11,6.78-16.21,8.8-5.73,2.21-6.92,5.93-6,11.22.31,1.67.62,3.34,1.09,5,2.1,7.22,4.64,14.7,13.17,15.93s10.8-6.52,14-12.33a23.9,23.9,0,0,1,2-2.69c4.23,12.94,4.22,12.93-6.56,18.28-2.52,1.26-5,2.68-7.44,4-11.14,6.15-18.76,4.17-24-7.37C445.61,667.84,444.33,660.52,441.81,651.88Zm61.81-8.07c7.78-5.68,14-12.07,13.46-21.92-.19-3.37-3.36-8.55-6.1-9.25s-7.73,2.67-9.48,5.59C496.52,626.57,497.34,635.19,503.62,643.81Z"/><path d="M301.81,649.3c14.08-1.25,27.55-2.53,41-3.62,10.33-.84,13.64,2.26,18.37,16.79,7.68-2.29,12.6-13.21,24.29-6.93l-14.1,9.75,8.88-.46c2.76,14.83,5.49,29.46,8.41,45.14l-15,3.08c-2.7-14.95-.29-30.95-12.13-43.95l3.49-1.69L363,665.06l-13.86,13.58a11.53,11.53,0,0,0,2.49,1.78c8.58,3.32,12.14,9.64,11.29,18.62a19.18,19.18,0,0,1-16.16,17.25c-12.22,1.71-24.64,2.06-36.78,3-.54-12-.87-23.65-1.64-35.3S309,660.34,301.81,649.3Zm22,35.91c0,5.31-.15,9.22.05,13.1a27.21,27.21,0,0,0,1.29,8.28c.77,2,2.43,4.52,4.29,5.23,6.79,2.57,14.72-2.24,16.94-9.75,2.41-8.14-1.08-15.11-9.12-16.71C333,684.52,328.49,685.21,323.78,685.21Zm-1.85-4.85c5.83-1.15,9.54-1.37,12.85-2.62,8.75-3.31,12.46-14.14,6.41-20.64-2.75-3-8.23-4.25-12.57-4.49-2.11-.12-6.05,3.7-6.38,6.11C321.34,665.28,321.93,672,321.93,680.36Z"/><path d="M156.71,68.8l19-25.41c8.82,16.21,17,31.19,25.14,46.25,3.37,6.26,1.33,11.39-8.26,20.16L178.1,86.21c-1.61,2.76-2.86,5.1-4.28,7.33-9.3,14.67-31.92,20.59-48.65,12.78-14.81-6.92-22.72-28.14-15.89-44.58,8.48-20.41,20.92-37,44.77-40.56,4.2-.63,8.59-.09,14.8-.09-3.33,6.34-5.36,10.89-8.08,15-.86,1.31-3.64,2.13-5.39,1.93-11.7-1.35-21.84,2.57-30.81,9.4C113.36,56,116.07,76,129.45,86.35c8.84,6.85,27.74,7.9,37.92,1.73,4-2.44,8.47-5.13,6.17-11.37-2.19-5.94-5.67-8.73-12.11-5.92-.87.38-2.06,0-3.1,0Z"/><path d="M364.23,17.51c-1.07,16.24-2.23,33.77-3.41,51.74-4.54-1.48-12.79,6.2-15.5-4.56-8.62,1.18-17.12,2.61-25.69,3.48-17.32,1.74-27.68-4-30.09-16.17-3.17-16,6.09-33.11,21.76-36.15,10.23-2,21.21-.34,31.84,0C350.2,16.1,357.23,16.94,364.23,17.51ZM306.05,46c.13,9.46,8,17.39,16.5,16.64,10.22-.9,25.55-18.78,24.64-29.21a12.65,12.65,0,0,0-3.27-6.57c-5.37-6.1-11.86-8-19.78-4.91C313.06,26.34,305.91,35.58,306.05,46Z"/><path d="M223.06,65c.81,4.65,1.56,9,2.44,14.16L209,83.26c-1.4-17.7-1.58-34.95-12.45-52.13,7.31-.34,13.49-.55,19.66-1,1.29-.09,2.48-1.11,3.77-1.58,7.89-2.91,15.72-6,23.71-8.61,7.64-2.49,14.87-1.54,19.4,5.78s2.64,14.72-2.65,21.07c-2.09,2.51-5,4.31-9.76,8.24l29,10.74c-6.27,5.82-22.68,8.25-31.5,4.12C240.41,66.28,232.85,61.42,223.06,65Zm-.84-5.38c11.71-3.57,21.88-7.8,25.08-19.85.85-3.21-.77-8.61-3.22-10.69-2-1.73-7.81-1.38-10.45.33C223.12,36.23,219.79,46.46,222.22,59.63Z"/><path d="M406.57,52c-3.21,10.16-6.07,19.23-9.09,28.8L381.59,76.7l9.94-29.14-12.14-4.31c1.42-10.73,8.66-6.49,15.51-5.34,2.19-8,4.41-15.77,6.42-23.61C403.71,5,406.4,3.38,415.68,5.18a31.2,31.2,0,0,0,10.55.36c11.85-1.88,20.8,3,29.13,11.77l-8.89,8.38C441,22,436,18.3,430.79,15.17,425.13,11.8,420.51,12.8,418,19.5c-2.82,7.63-5.67,15.26-9,24.21l33.24,9.18c-2.91,6.45-6.13,10.35-14.05,6.66C421.64,56.49,414.49,54.69,406.57,52Z"/><path d="M85.93,625.05c-6.09,3.21-10.59,6.06-15.48,7.88-1.62.61-4.7-.91-6.31-2.35C56,623.19,47.9,615.66,40.05,607.92c-11.64-11.48-13.72-24.62-6.29-37.57,8.57-14.93,25.92-24.35,39.76-18.26,12.87,5.66,24.81,14.33,35.53,23.57,5,4.3,6.13,13.07,7.93,20.38-9.07-1.29-15.25-3-16.25-13.95-1.69-18.53-26.16-26.22-43-14.18-9.4,6.73-15.82,15.7-14.32,28,1.4,11.54,8.73,18.69,19.44,22.34C69.73,620.56,76.75,622.36,85.93,625.05Z"/><path d="M157.71,638.37c-7.74,12.07-15.89,24.79-24.37,38-3.23-2.67-11.76-1.14-10.14-10.21-7.37-2.88-14.77-5.51-22-8.65-11.49-5-16.69-12.67-15.29-21.71,1.62-10.46,11.61-19.84,22.41-21.45,14.63-2.17,24.27,7.3,34.91,14.54C148,632.12,152.89,635.21,157.71,638.37Zm-37.85-13.76c-6.59.1-14.32,2.71-17.76,10.58-1.84,4.22-1.94,10.93.28,14.67,2,3.32,8.2,5.48,12.62,5.61,4.72.15,9.86-2.05,14.22-4.36,5.72-3,11.31-6.82,9.07-15.07C136.3,628.69,130.6,624.67,119.86,624.61Z"/><path d="M497.57,70,517,81.65c-5.47,4.42-10.34,4.81-15.36.52a2.53,2.53,0,0,0-.72-.44c-5.18-2-11.52-7-15.31-5.55-9,3.53-15.45,11.36-17.64,21.35-1.88,8.59,2.8,14.2,11.71,14.7,4.4.24,8.82,0,13.25,0-6.07,10.72-9.61,11.78-19.2,6-4.11-2.46-8.39-4.62-12.56-7-10.09-5.66-12.68-12.77-7.72-23.35A56.28,56.28,0,0,1,462,75.5c3.09-3.6,7-6.49,11.26-10.35L460.1,56.89c5.53-4.92,10.34-5,15.34-.67,3.76,3.28,7.5,3.86,12.3,1.42,9.94-5.06,15.52,5.13,23.77,8.45Z"/><path d="M176.09,657.69c5.56,2.25,9.92,4.17,14.39,5.77s9,2.83,14.23,4.46L198,675.48,173.35,665l-9.74,24.34-13.52-4.55c3.5-8.23,6.88-16.15,10.46-24.55l-10.08-4.41c3.09-6.79,3.09-6.79,13.61-4,2.48-7,5.25-14.06,7.39-21.28,1.65-5.52,5-6.85,10.21-6s10.78.25,15.69,1.84c7.14,2.3,13.84,6,22.82,10l-10.72,8.23c-4.77-3.63-9.06-7.24-13.71-10.32-4.37-2.88-8.06-1.72-10.33,3.15C182.48,643.84,179.55,650.2,176.09,657.69Z"/><path d="M588.59,586.47c-.57,2-.64,6.2-2.68,8.89-5.77,7.6-11.7,15.31-18.77,21.64-8,7.17-18.69,6.12-27.08-.93s-12-19.05-6.24-28.1c5.49-8.67,12.66-16.54,20.18-23.6,5.76-5.39,13.51-5.37,20.6-1.35C583,567.8,588,574.93,588.59,586.47Zm-11.87,6.12c0-11-8.84-20.41-18.75-20.1-8.82.29-15.44,8-15.38,17.94s8.6,19,17.94,18.92C570.36,609.28,576.75,602.66,576.72,592.59Z"/><path d="M215.23,689c.4,9.87,5.58,16.54,14.53,16.3,7.93-.21,15.79-2.68,23.85-4.18-6.58,11.2-9.23,12.46-20.57,10.24-4.14-.81-8.32-1.43-12.5-2-13.14-2-20-8.7-20.09-19.91-.14-12.08,9-25.12,20.24-25.51,10.45-.37,21.22,1.72,31.42,4.38,3.13.82,6.95,7.32,6.6,10.83s-5.22,9.1-8.57,9.45C238.83,689.75,227.32,689,215.23,689Zm.74-4.86c7.9,0,14.78,1,21.13-.42,3.22-.72,5.47-5.79,8.16-8.9-3.66-1.72-7.4-5-11-4.84C226.3,670.39,220.23,675,216,684.16Z"/><path d="M226.72,655.65c16.39-11,18.88-11.24,26.69-2.36C238,661.3,230.59,662,226.72,655.65Z"/><path class="cls-1" d="M393.05,466.85l20.25-10.6-15.62,18.9Q395.37,471,393.05,466.85Z"/><path class="cls-1" d="M107.41,277.12c-.14-8,4.47-13.59,11.45-13.84a12.45,12.45,0,0,1,12.55,12.07c.06,7.4-5.7,14.36-12.12,14.66C111.81,290.35,107.56,285.74,107.41,277.12Z"/><path class="cls-1" d="M73.43,339.39l24.48,29.42-1.68,1.41-24.37-29.3Z"/><path class="cls-1" d="M471,290c-6.68-.13-12.12-6.69-12.1-14.6a11.87,11.87,0,0,1,12.29-12.13c6.5.29,12.08,6.51,11.72,13.05C482.48,283.71,476.88,290.14,471,290Z"/><path class="cls-1" d="M336.77,504c-3.67-5.22-8-8.76-7.49-11.3.68-3.3,5.23-5.8,8.12-8.64,2.68,3,7.07,5.8,7.51,9.12C345.26,495.79,340.73,499,336.77,504Z"/><path class="cls-1" d="M198.28,546.63c-3.25,2.24-6.53,6.25-9.74,6.19-2.7-.06-7.32-4.8-7.38-7.55s4.2-7.83,6.9-8.06c3.18-.28,6.72,3.54,10.11,5.58Z"/><path class="cls-1" d="M400.58,533c4.3,5.37,8.84,8.61,8.5,11.21-.42,3.31-4.8,6.11-7.47,9.13-2.86-2.53-7.77-4.87-8-7.64C393.29,542.51,397.09,538.92,400.58,533Z"/><path class="cls-1" d="M250.54,501.92c-2-3.38-5.78-7-5.43-10.09.33-2.87,5.11-5.24,7.94-7.83,2.62,3,6.87,5.85,7.35,9.2.38,2.58-4,5.85-6.21,8.81Z"/><path class="cls-1" d="M286.76,436.78c-5.44,3.89-8.68,8-11.46,7.7-3.07-.31-7.42-4.25-8.16-7.35-1.22-5.05,2.85-9.06,8-8.38C278.39,429.19,281.26,432.82,286.76,436.78Z"/><path class="cls-1" d="M319.84,443.83l-12.2-10c2.83-5.8,7.08-6.92,11.74-3.91C324.62,433.32,324.46,438,319.84,443.83Z"/><path class="cls-1" d="M161.55,556.11c-3.84-14.31,3.62-23.48,14.71-30.9C167.65,533.65,160,542.55,161.55,556.11Z"/><path class="cls-1" d="M306.64,225.86l-22.87,2,9.94-20.53Z"/><path class="cls-1" d="M503.62,643.81c-6.28-8.62-7.1-17.24-2.12-25.58,1.75-2.92,6.87-6.25,9.48-5.59s5.91,5.88,6.1,9.25C517.61,631.74,511.4,638.13,503.62,643.81Z"/><path class="cls-1" d="M323.78,685.21c4.71,0,9.23-.69,13.45.15,8,1.6,11.53,8.57,9.12,16.71-2.22,7.51-10.15,12.32-16.94,9.75-1.86-.71-3.52-3.19-4.29-5.23a27.21,27.21,0,0,1-1.29-8.28C323.63,694.43,323.78,690.52,323.78,685.21Z"/><path class="cls-1" d="M321.93,680.36c0-8.32-.59-15.08.31-21.64.33-2.41,4.27-6.23,6.38-6.11,4.34.24,9.82,1.54,12.57,4.49,6.05,6.5,2.34,17.33-6.41,20.64C331.47,679,327.76,679.21,321.93,680.36Z"/><path class="cls-1" d="M306.05,46c-.14-10.45,7-19.69,18.09-24,7.92-3.11,14.41-1.19,19.78,4.91a12.65,12.65,0,0,1,3.27,6.57c.91,10.43-14.42,28.31-24.64,29.21C314,63.42,306.18,55.49,306.05,46Z"/><path class="cls-1" d="M222.22,59.63c-2.43-13.17.9-23.4,11.41-30.21,2.64-1.71,8.41-2.06,10.45-.33,2.45,2.08,4.07,7.48,3.22,10.69C244.1,51.83,233.93,56.06,222.22,59.63Z"/><path class="cls-1" d="M119.86,624.61c10.74.06,16.44,4.08,18.43,11.43,2.24,8.25-3.35,12-9.07,15.07-4.36,2.31-9.5,4.51-14.22,4.36-4.42-.13-10.65-2.29-12.62-5.61-2.22-3.74-2.12-10.45-.28-14.67C105.54,627.32,113.27,624.71,119.86,624.61Z"/><path class="cls-1" d="M576.72,592.59c0,10.07-6.36,16.69-16.19,16.76-9.34.06-17.87-8.94-17.94-18.92s6.56-17.65,15.38-17.94C567.88,572.18,576.69,581.62,576.72,592.59Z"/><path class="cls-1" d="M216,684.16c4.26-9.2,10.33-13.77,18.32-14.16,3.57-.17,7.31,3.12,11,4.84-2.69,3.11-4.94,8.18-8.16,8.9C230.75,685.16,223.87,684.16,216,684.16Z"/></svg>